<?xml version="1.0" encoding="UTF-8" standalone="no"?>
<!-- Created with Inkscape (http://www.inkscape.org/) -->
<svg xmlns:dc="http://purl.org/dc/elements/1.1/" xmlns:cc="http://web.resource.org/cc/" xmlns:rdf="http://www.w3.org/1999/02/22-rdf-syntax-ns#" xmlns:svg="http://www.w3.org/2000/svg" xmlns="http://www.w3.org/2000/svg" xmlns:sodipodi="http://sodipodi.sourceforge.net/DTD/sodipodi-0.dtd" xmlns:inkscape="http://www.inkscape.org/namespaces/inkscape" id="svg2" sodipodi:version="0.32" inkscape:version="0.45.1" width="250" height="220" version="1.0" sodipodi:docbase="C:\Images" sodipodi:docname="Hysteresiscurve.svg" inkscape:output_extension="org.inkscape.output.svg.inkscape">
  <metadata id="metadata7">
    <rdf:RDF>
      <cc:Work rdf:about="">
        <dc:format>image/svg+xml</dc:format>
        <dc:type rdf:resource="http://purl.org/dc/dcmitype/StillImage"/>
      </cc:Work>
    </rdf:RDF>
  </metadata>
  <defs id="defs5"/>
  <sodipodi:namedview inkscape:window-height="712" inkscape:window-width="1024" inkscape:pageshadow="2" inkscape:pageopacity="0.0" guidetolerance="10.0" gridtolerance="10.0" objecttolerance="10.0" borderopacity="1.0" bordercolor="#666666" pagecolor="#ffffff" id="base" inkscape:zoom="2.3393547" inkscape:cx="124.9273" inkscape:cy="109.78682" inkscape:window-x="-4" inkscape:window-y="-4" inkscape:current-layer="svg2"/>
  <path style="fill:none;fill-rule:evenodd;stroke:#000000;stroke-width:1px;stroke-linecap:butt;stroke-linejoin:miter;stroke-opacity:1" d="M 0.42635659,110 L 249.84496,110" id="path4130"/>
  <path style="fill:none;fill-rule:evenodd;stroke:#000000;stroke-width:1px;stroke-linecap:butt;stroke-linejoin:miter;stroke-opacity:1" d="M 124.92248,0.42635659 L 124.92248,220" id="path4132"/>
  <path style="fill:none;fill-rule:evenodd;stroke:#0000ff;stroke-width:1px;stroke-linecap:butt;stroke-linejoin:miter;stroke-opacity:1" d="M 0,201.24031 C 41.356589,201.24031 -0.13006473,201.1556 33.255814,201.24031 C 64.382665,201.31929 68.561262,180.13912 75.891473,149.65116 C 91.86039,83.232915 90.387597,18.75969 128.33333,18.75969 C 166.27907,18.75969 249.84496,18.75969 249.84496,18.75969" id="path2163" sodipodi:nodetypes="csssc"/>
  <path style="fill:none;fill-rule:evenodd;stroke:#0000ff;stroke-width:1px;stroke-linecap:butt;stroke-linejoin:miter;stroke-opacity:1" d="M 124.92248,110 C 135.15504,109.14728 138.02267,90.597354 139.9875,82.454476 C 149.39866,43.451657 147.56286,25.545983 170.54263,21.317829 C 195.37519,16.74877 226.75393,19.544633 249.84496,18.75969" id="path2185" sodipodi:nodetypes="cssc"/>
  <path style="fill:none;fill-rule:evenodd;stroke:#0000ff;stroke-width:0.99830014px;stroke-linecap:butt;stroke-linejoin:miter;stroke-opacity:1" d="M 249.85413,18.656626 C 249.87576,18.847359 249.98378,18.920594 217.96664,18.665826 C 186.9467,18.417603 182.42872,39.418385 175.13194,69.908662 C 159.23585,136.33194 160.72152,200.80535 122.90504,200.81585 C 85.088555,200.82635 0.52847543,201.27583 0.52847543,201.27583" id="path2165" sodipodi:nodetypes="csssc"/>
  <path sodipodi:type="star" style="opacity:1;fill:#0000ff;fill-opacity:1;stroke:#0000ff;stroke-opacity:1" id="path3145" sodipodi:sides="3" sodipodi:cx="61.982903" sodipodi:cy="118.26254" sodipodi:r1="3.8472147" sodipodi:r2="1.9236076" sodipodi:arg1="1.5707963" sodipodi:arg2="2.6179939" inkscape:flatsided="false" inkscape:rounded="0" inkscape:randomized="0" d="M 61.982903,122.10976 L 60.317009,119.22435 L 58.651117,116.33894 L 61.982903,116.33894 L 65.314688,116.33894 L 63.648796,119.22435 L 61.982903,122.10976 z " transform="matrix(0.7433437,0.1679192,-0.2216572,0.9812306,53.700803,32.451098)"/>
  <path sodipodi:type="star" style="opacity:1;fill:#0000ff;fill-opacity:1;stroke:#0000ff;stroke-opacity:1" id="path3147" sodipodi:sides="3" sodipodi:cx="61.982903" sodipodi:cy="118.26254" sodipodi:r1="3.8472147" sodipodi:r2="1.9236076" sodipodi:arg1="1.5707963" sodipodi:arg2="2.6179939" inkscape:flatsided="false" inkscape:rounded="0" inkscape:randomized="0" d="M 61.982903,122.10976 L 60.317009,119.22435 L 58.651117,116.33894 L 61.982903,116.33894 L 65.314688,116.33894 L 63.648796,119.22435 L 61.982903,122.10976 z " transform="matrix(-0.7433437,-0.1679192,0.2216572,-0.9812306,164.71679,186.76301)"/>
  <path sodipodi:type="star" style="opacity:1;fill:#0000ff;fill-opacity:1;stroke:#0000ff;stroke-opacity:1" id="path3149" sodipodi:sides="3" sodipodi:cx="61.982903" sodipodi:cy="118.26254" sodipodi:r1="3.8472147" sodipodi:r2="1.9236076" sodipodi:arg1="1.5707963" sodipodi:arg2="2.6179939" inkscape:flatsided="false" inkscape:rounded="0" inkscape:randomized="0" d="M 61.982903,122.10976 L 60.317009,119.22435 L 58.651117,116.33894 L 61.982903,116.33894 L 65.314688,116.33894 L 63.648796,119.22435 L 61.982903,122.10976 z " transform="matrix(-0.7433437,-0.1679192,0.2216572,-0.9812306,197.23383,187.67053)"/>
</svg>